<svg id="Layer_5" enable-background="new 0 0 64 64" height="512" viewBox="0 0 64 64" width="512" xmlns="http://www.w3.org/2000/svg" xmlns:xlink="http://www.w3.org/1999/xlink"><linearGradient id="SVGID_1_" gradientUnits="userSpaceOnUse" x1="32.118" x2="32.118" y1="63" y2="1"><stop offset="0" stop-color="#9f2fff"/><stop offset="1" stop-color="#0bb1d3"/></linearGradient><path d="m42.378 29.556 1.791.889c-.364.734-.783 1.45-1.247 2.126l-4.097 5.987-1.65-1.129 4.097-5.988c.411-.6.783-1.234 1.106-1.885zm3.257-3.353-1.959-.406c-.133.641-.306 1.273-.514 1.878l1.893.649c.234-.684.429-1.398.58-2.121zm-33.635-3.582c0-1.814.31-3.591.919-5.281l-1.881-.679c-.688 1.908-1.038 3.913-1.038 5.96 0 .847.061 1.696.181 2.522l1.979-.286c-.106-.732-.16-1.485-.16-2.236zm-1.381 4.642c.195.717.44 1.431.729 2.121l1.846-.769c-.255-.612-.472-1.244-.645-1.879zm43.381-8.881 9.236 4.618-9.236 4.618v-3.618h-4.051c-.245 3.88-1.515 7.599-3.726 10.829l-8 11.693c-.103.15-.186.317-.277.478h.054c1.654 0 3 1.346 3 3 0 .771-.301 1.468-.78 2 .48.532.78 1.229.78 2 0 1.654-1.346 3-3 3h-1.522c-1.259 3.569-4.64 6-8.478 6s-7.219-2.431-8.478-6h-1.522c-1.654 0-3-1.346-3-3 0-.771.301-1.468.78-2-.48-.532-.78-1.229-.78-2 0-1.654 1.346-3 3-3h.055c-.091-.161-.175-.328-.277-.478l-8-11.693c-.406-.592-.768-1.206-1.11-1.829h-1.668c-.552 0-1 .449-1 1v14.142c1.721.447 3 2 3 3.858 0 2.206-1.794 4-4 4s-4-1.794-4-4c0-1.858 1.279-3.411 3-3.858v-14.142c0-1.654 1.346-3 3-3h.701c-1.112-2.638-1.701-5.472-1.701-8.379 0-11.922 9.699-21.621 21.621-21.621h.758c11.714 0 21.275 9.365 21.605 21h4.016zm-49 31.618c-1.103 0-2 .897-2 2s.897 2 2 2 2-.897 2-2-.897-2-2-2zm4.883-19h6.644c-1.588-2.27-2.527-5.026-2.527-8 0-7.72 6.28-14 14-14 7.382 0 13.433 5.747 13.949 13h6.019c-.332-10.53-8.98-19-19.59-19h-.758c-10.818 0-19.62 8.802-19.62 19.621 0 2.924.648 5.771 1.883 8.379zm20.117-3v-2h6v5.919c2.215-1.989 3.689-4.781 3.949-7.919h-10.949c-.552 0-1 .449-1 1v5c0 1.654-1.346 3-3 3h-3.619c1.899 1.261 4.173 2 6.619 2 2.187 0 4.233-.598 6-1.624v-5.376zm9.949-6c-.057-.685-.176-1.352-.344-2h-11.605v-2h10.895c-1.768-3.836-5.494-6.584-9.895-6.949v2.949h4v2h-6v-4.949c-3.59.298-6.73 2.182-8.727 4.949h7.727v4h-2v-2h-6.895c-.57 1.236-.937 2.582-1.055 4h7.95v7h-2v-5h-5.949c.057.685.176 1.352.344 2h3.605v2h-2.895c.507 1.101 1.175 2.109 1.976 3h5.919c.552 0 1-.449 1-1v-5c0-1.654 1.346-3 3-3zm-5.644 35h-12.61c1.14 2.404 3.569 4 6.305 4s5.165-1.596 6.305-4zm4.695-3c0-.551-.448-1-1-1h-20c-.552 0-1 .449-1 1s.448 1 1 1h20c.552 0 1-.449 1-1zm-1-5h-20c-.552 0-1 .449-1 1s.448 1 1 1h20c.552 0 1-.449 1-1s-.448-1-1-1zm9.949-25h-5.999c-.517 7.253-6.568 13-13.95 13-3.804 0-7.254-1.53-9.779-4h-7.235c.146.234.285.471.442.7l8 11.693c.337.492.607 1.039.843 1.607h15.458c.237-.568.506-1.115.843-1.607l8-11.693c1.982-2.896 3.134-6.225 3.377-9.7zm8.051.382 2.764-1.382-2.764-1.382zm-26 7.618h2v-2h-2zm-11 11h2v-2h-2zm12 0h2v-2h-2zm-8 0h2v-2h-2zm4 0h2v-2h-2zm8 0h2v-2h-2z" fill="url(#SVGID_1_)"/></svg>